<svg xmlns="http://www.w3.org/2000/svg" xmlns:xlink="http://www.w3.org/1999/xlink" width="800" height="600" viewBox="0 0 800 600"><defs><linearGradient id="Dégradé_sans_nom_30" x1="196.38" y1="529.32" x2="617.55" y2="529.32" gradientTransform="matrix(1, -0.02, -0.02, 0.57, 8.56, 225.34)" gradientUnits="userSpaceOnUse"><stop offset="0" stop-color="#6249ff"/><stop offset="1" stop-color="#483dcc" stop-opacity="0"/></linearGradient><linearGradient id="Dégradé_sans_nom_28" x1="268.11" y1="346.48" x2="266.36" y2="429" gradientUnits="userSpaceOnUse"><stop offset="0" stop-color="#0fc4b2"/><stop offset="1" stop-color="#139588"/></linearGradient></defs><g style="isolation:isolate"><g id="Calque_1" data-name="Calque 1"><g id="Calque_1-2" data-name="Calque 1"><path d="M548,339.53c1.13-6.12-8.62-13.66-9.7-7.82-7.49-5.56-12.49-1.83-11.69,3.3-5.22,2.87-6.54,12.25,0,11.59s19.55,3.49,18.85-1.79" style="fill:#04c5af"/><path d="M556.33,372.7a3.51,3.51,0,0,1-3.49-3l-3.29-24.92a3.53,3.53,0,0,1,3-3.91,3.49,3.49,0,0,1,3.91,3h0l3.3,24.87a3.49,3.49,0,0,1-2.95,4h-.49Z" style="fill:#614afc"/><path d="M539.09,373.12a3.48,3.48,0,0,1-3.44-3l-4-26.85a3.58,3.58,0,0,1,1-2.92,3.67,3.67,0,0,1,2.82-1.08l31.8,2.73a3.49,3.49,0,0,1,3.21,3.75v0a3.53,3.53,0,0,1-3.82,3.2l-27.37-2.35,3.34,22.47a3.48,3.48,0,0,1-2.94,3.95h0Z" style="fill:#614afc"/><path d="M568.63,385.8h-28a5.52,5.52,0,0,1-5.47-5.52V369.64l35.47-.43Z" style="fill:#dfe7fd"/><path d="M554.45,290.07a3.43,3.43,0,0,1-3.44-3l-3.3-24.92a3.43,3.43,0,0,1,2.9-3.9h.07a3.5,3.5,0,0,1,4,2.95v.07l3.3,24.87a3.58,3.58,0,0,1-3,4Z" style="fill:#614afc"/><path d="M537.2,290.49a3.53,3.53,0,0,1-3.44-3l-4-26.85a3.35,3.35,0,0,1,.85-2.87,3.63,3.63,0,0,1,2.78-1.13l31.79,1.69a3.49,3.49,0,0,1-.37,7l-27.51-1.46,3.34,22.61a3.48,3.48,0,0,1-2.94,3.95h0Z" style="fill:#614afc"/><path d="M566.74,303.12h-28a5.46,5.46,0,0,1-5.46-5.47h0V287l33-.43Z" style="fill:#dfe7fd"/><polygon points="675.99 481.05 565.05 481.05 567.26 217.33 683.48 217.33 675.99 481.05" style="fill:#dfe7fd"/><polygon points="642.3 181.57 642.3 152.84 659.17 154.02 656.2 193.16 642.3 181.57" style="fill:#4b39f3"/><path d="M659.69,157.31h0l-18.37-1a3.49,3.49,0,1,1,.37-7h0l18.38,1a3.49,3.49,0,0,1,0,7Z" style="fill:#614afc"/><path d="M570,480.77s6.64-17.06,0-18.23a37.63,37.63,0,0,0-15.5,2s0-22.56-13.66-19.22-5.18,35.43-5.18,35.43Z" style="fill:#04c5af"/><polygon points="571.55 481.05 673.96 481.05 671.7 217.33 563.91 217.33 571.55 481.05" style="fill:#dfe7fd"/><polygon points="676.51 481.05 583.04 481.05 585.07 227.08 683.48 227.08 676.51 481.05" style="fill:#fff"/><path d="M555.29,217.33H697.61l-8.71-38.16a8,8,0,0,0-7.73-5.93H571.74a7.85,7.85,0,0,0-7.68,6.17Z" style="fill:#4b39f3"/><path d="M555.29,217.33H682.21l-8.76-38.16a8,8,0,0,0-7.73-5.93h-94a7.85,7.85,0,0,0-7.68,6.17Z" style="fill:#614afc"/><path d="M697.61,220.82H555.29a3.49,3.49,0,0,1,0-7H697.61a3.49,3.49,0,1,1,0,7Z" style="fill:#dfe7fd"/><path d="M610.22,474.74H644.1l2.26-54.37a5.29,5.29,0,0,0-4.71-5.56l-26.81-2a5.36,5.36,0,0,0-5.73,5,3.85,3.85,0,0,0,0,.48Z" style="fill:#614afc"/><path d="M617.53,349.85h24V319.61a6.88,6.88,0,0,0-6.83-6.93H622.33a6.88,6.88,0,0,0-6.9,6.86c0,.18,0,.36,0,.54Z" style="fill:#948efd"/><rect x="601.74" y="186.24" width="36.75" height="13.9" rx="2.5" style="fill:#4b39f3"/><path d="M617.53,399.83h24V365.16a2.45,2.45,0,0,0-2.4-2.5H620a2.45,2.45,0,0,0-2.45,2.45v34.72Z" style="fill:#fcec00"/><path d="M642.92,403.32H614.09a3.49,3.49,0,1,1,0-7h28.83a3.49,3.49,0,0,1,0,7Z" style="fill:#dfe7fd"/><path d="M642.92,353.34H614.09a3.49,3.49,0,0,1,0-7h28.83a3.49,3.49,0,0,1,0,7Z" style="fill:#dfe7fd"/><path d="M617.53,293.55h24V263.31a6.86,6.86,0,0,0-6.83-6.92H622.33a6.87,6.87,0,0,0-6.9,6.85c0,.18,0,.36,0,.54Z" style="fill:#948efd"/><path d="M642.92,297H614.09a3.49,3.49,0,1,1,0-7h28.83a3.49,3.49,0,0,1,0,7Z" style="fill:#dfe7fd"/><path d="M695,482.18H542.81a3.49,3.49,0,1,1,0-7H695a3.49,3.49,0,1,1,0,7Z" style="fill:#dfe7fd"/><path d="M526.56,346.6a32.73,32.73,0,0,1,5.6,0l3.4,22.85h-.43v11.07A5.51,5.51,0,0,0,540.6,386h25.25l-.66,76.55a44,44,0,0,0-10.65,2.22s0-22.57-13.66-19.22S535.7,481,535.7,481h4.38a3.32,3.32,0,0,0,2.73,1.42H695a3.49,3.49,0,0,0,0-7H676.7l6.78-248.12h-.28v-6.27h14.13a3.49,3.49,0,1,0,0-7h-.8l-7.92-34.67a8,8,0,0,0-7.44-6.17H657.62l1.17-15.74h.76a3.49,3.49,0,0,0,0-7l-18.38-1a3.49,3.49,0,0,0-.37,7H642v16.73H571.31a7.86,7.86,0,0,0-7.68,6.17l-8,34.67h-.8a3.49,3.49,0,1,0,0,7h8.76l1.09,37.69L533,257a3.64,3.64,0,0,0-2.78,1.14,3.39,3.39,0,0,0-.85,2.87l3.91,26.33h-.47V298a5.46,5.46,0,0,0,5.47,5.46H566V307l-.28,35.33-18.85-1.6.43-.8c1.13-6.12-8.63-13.66-9.71-7.82-7.49-5.56-12.48-1.84-11.68,3.3C521.38,338.12,520.06,347.26,526.56,346.6Zm13,.94a12.29,12.29,0,0,0,4.71-.42l5.89.52,2.92,21.81H542.76V369Zm-2-83.62,10.65.57,3,22.33H540.83v-.43Zm20.54,22.8v-.56l-2.82-21.3,9.75.52h.47l.61,21.34Zm8.11,82.59H560a3.21,3.21,0,0,0,0-.62l-2.69-20.58,9.09.8Z" style="fill:#fff;stroke:#fff;stroke-miterlimit:10;stroke-width:3.768769520748865px;opacity:0.800000011920929;isolation:isolate"/><polyline points="198.44 423.93 383.82 423.93 383.82 207.88 190.67 207.88 198.44 423.93" style="fill:#dfe7fd"/><path d="M340.29,381.44h18.84V344.5a5.09,5.09,0,0,0-4.71-5.28H343.68a5.09,5.09,0,0,0-4.71,5.44v.08l1.6,36.7" style="fill:#948efd"/><path d="M332.47,385.35h33a3.92,3.92,0,0,0,0-7.83h-33a3.92,3.92,0,0,0,0,7.83" style="fill:#fff"/><path d="M284.94,381.44h18.84V344.5a5.09,5.09,0,0,0-4.71-5.28H288.19a5.09,5.09,0,0,0-4.72,5.44v.08Z" style="fill:#b4b4f9"/><path d="M277.16,385.35h33a3.92,3.92,0,0,0,0-7.83h-33a3.92,3.92,0,0,0,0,7.83Z" style="fill:#fff"/><path d="M229.58,381.44h18.85V344.5a5.1,5.1,0,0,0-4.71-5.28H232.79a5.09,5.09,0,0,0-4.72,5.44v.08Z" style="fill:#948efd"/><path d="M221.72,385.35h33a3.92,3.92,0,0,0,0-7.83h-33a3.92,3.92,0,0,0,0,7.83Z" style="fill:#fff"/><path d="M340.29,306h18.84V269.13a5.13,5.13,0,0,0-4.71-5.33H343.68a5.09,5.09,0,0,0-4.71,5.44v.07Z" style="fill:#948efd"/><path d="M332.47,309.92h33a3.91,3.91,0,0,0,0-7.77h-33a3.91,3.91,0,0,0,0,7.77" style="fill:#fff"/><path d="M284.94,306h18.84V269.13a5.15,5.15,0,0,0-4.71-5.33H288.19a5.09,5.09,0,0,0-4.72,5.44v.07Z" style="fill:#d7d7ff"/><path d="M277.16,309.92h33a3.91,3.91,0,0,0,0-7.77h-33a3.91,3.91,0,0,0,0,7.77Z" style="fill:#fff"/><path d="M229.58,306h18.85V269.13a5.15,5.15,0,0,0-4.71-5.33H232.79a5.13,5.13,0,0,0-4.71,5.51Z" style="fill:#948efd"/><path d="M221.72,309.92h33a3.91,3.91,0,0,0,0-7.77h-33a3.91,3.91,0,0,0,0,7.77Z" style="fill:#fff"/><polygon points="451.85 181.74 451.85 145.18 471.77 146.69 468.29 196.44 451.85 181.74" style="fill:#4b39f3"/><path d="M472.39,148.15a1.65,1.65,0,0,0,1.6-1.65,1.75,1.75,0,0,0-1.56-1.84l-21.67-1.22a1.59,1.59,0,0,0-1.69,1.5v.15a1.73,1.73,0,0,0,1.5,1.83l21.72,1.23Z" style="fill:#614afc"/><path d="M190.67,207.88H383.82v3.49h0V423.88H355.55l4.34-38.11-.33-.42h6a3.92,3.92,0,0,0,0-7.83h-5.37a4,4,0,0,1,1.56-.32h0l4.71-67.47a3.89,3.89,0,0,0,2.49-3.72,4,4,0,0,0-2-3.48l5.27-75.38-180.14-1L190.72,208" style="fill:#c2c3fc"/><path d="M359.94,377.52h5.37a3.92,3.92,0,0,1,0,7.83h-6a7.67,7.67,0,0,1-1.13-4.72,3.31,3.31,0,0,1,1.75-2.92" style="fill:#d3d1fc"/><path d="M366.67,302.53a4,4,0,0,1,2,3.48,3.91,3.91,0,0,1-2.5,3.72l.47-7.2" style="fill:#d3d1fc"/><path d="M171.36,423.93s-6.6-17.62,0-18.85a35.67,35.67,0,0,1,15.35,2.12s0-23.55,13.57-19.88,5.09,36.61,5.09,36.61Z" style="fill:#04c5af"/><path d="M383.82,423.88H477.1L484.87,211a17.43,17.43,0,0,0-4.71-12L429.75,158.8a4.7,4.7,0,0,0-6.5,0l-34.2,40.27a17.05,17.05,0,0,0-5.23,12.44V424" style="fill:#fff"/><path d="M403.14,427.6h54.64a3.91,3.91,0,1,0,0-7.82H403.14a3.91,3.91,0,1,0,0,7.82Z" style="fill:#dfe7fd"/><path d="M413,419.45h32.46l2.21-56.2A5.42,5.42,0,0,0,443,357.5l-25.67-2a5.32,5.32,0,0,0-5.52,5.12,4.69,4.69,0,0,0,0,.53Z" style="fill:#614afc"/><polyline points="383.82 207.88 424.9 169.49 483.65 243.4 484.87 207.88 426.45 155.5 383.82 207.88" style="fill:#dfe7fd"/><ellipse cx="430.46" cy="212.08" rx="17.05" ry="18.47" style="fill:#948efd"/><path d="M424.48,306h18.84V269.13a5.15,5.15,0,0,0-4.71-5.33h-10.7a5.09,5.09,0,0,0-4.71,5.44v.07Z" style="fill:#948efd"/><path d="M416.66,309.92h33a3.91,3.91,0,0,0,0-7.77h-33a3.91,3.91,0,0,0,0,7.77Z" style="fill:#dfe7fd"/><polygon points="270.47 482.44 156.8 482.44 159.11 300.26 278.11 300.26 270.47 482.44" style="fill:#dfe7fd"/><path d="M303.07,341c-1.13-6.17,8.63-13.71,9.76-7.82,7.53-5.61,12.57-1.84,11.73,3.25,5.32,2.87,6.59,12.25,0,11.63s-19.7,3.44-18.85-1.83" style="fill:#04c5af"/><path d="M294.69,374.13h-.47a3.42,3.42,0,0,1-3-3.85,1.87,1.87,0,0,1,0-.25l3.29-24.92a3.54,3.54,0,0,1,7,.95l-3.35,24.87A3.48,3.48,0,0,1,294.69,374.13Z" style="fill:#614afc"/><path d="M312,374.75h-.57a3.49,3.49,0,0,1-2.92-4l3.34-22.47-27.6,2.35a3.5,3.5,0,1,1-.57-7h0l32-2.73a3.53,3.53,0,0,1,3.79,3.25,3.76,3.76,0,0,1,0,.75l-4,26.85A3.43,3.43,0,0,1,312,374.75Z" style="fill:#614afc"/><polygon points="207.11 264.51 207.11 235.72 190.1 236.95 193.07 276.1 207.11 264.51" style="fill:#4b39f3"/><path d="M189.59,240.25a3.53,3.53,0,0,1,0-7l18.51-1a3.53,3.53,0,0,1,.38,7L190,240.2Z" style="fill:#614afc"/><path d="M270.05,482.16s-6.69-17.06,0-18.24a38.47,38.47,0,0,1,15.64,2s0-22.57,13.71-19.17,5.23,35.38,5.23,35.38Z" style="fill:#04c5af"/><polygon points="278.3 482.44 175.22 482.44 177.48 300.26 285.97 300.26 278.3 482.44" style="fill:#dfe7fd"/><polygon points="278.3 482.44 175.22 482.44 177.48 309.97 285.97 309.97 278.3 482.44" style="fill:#fff"/><path d="M294.64,300.27H151.38l8.81-38.16a8,8,0,0,1,7.77-6.17H278.11a7.86,7.86,0,0,1,7.72,6.17Z" style="fill:#4b39f3"/><path d="M294.64,300.27H166.93l8.81-38.16a8,8,0,0,1,7.77-6.17h94.6a7.86,7.86,0,0,1,7.72,6.17Z" style="fill:#614afc"/><path d="M294.64,303.75H151.38a3.53,3.53,0,0,1,0-7H294.64a3.53,3.53,0,1,1,.82,7A3.75,3.75,0,0,1,294.64,303.75Z" style="fill:#dfe7fd"/><path d="M247.48,476h-34.1l-2.17-54.12a5.32,5.32,0,0,1,4.71-5.56l27-2a5.36,5.36,0,0,1,5.94,4.72c0,.17,0,.34,0,.51Z" style="fill:#614afc"/><path d="M240.23,351.19H215.92V321a6.87,6.87,0,0,1,6.88-6.87h12.53a6.86,6.86,0,0,1,6.89,6.86,3.85,3.85,0,0,1,0,.48Z" style="fill:#948efd"/><rect x="210.93" y="269.13" width="37.03" height="13.9" rx="2.5" style="fill:#4b39f3"/><path d="M240.23,401.22H215.92V366.55a2.45,2.45,0,0,1,2.45-2.45h19.32a2.45,2.45,0,0,1,2.45,2.45Z" style="fill:#fcec00"/><path d="M243.67,404.75h-29a3.53,3.53,0,0,1-3.49-3.53,3.48,3.48,0,0,1,3.49-3.48h29a3.52,3.52,0,0,1,3.53,3.48A3.57,3.57,0,0,1,243.67,404.75Z" style="fill:#dfe7fd"/><path d="M243.67,354.77h-29a3.53,3.53,0,0,1-3.44-3.58,3.49,3.49,0,0,1,3.49-3.49h29a3.54,3.54,0,0,1,3.53,3.49A3.58,3.58,0,0,1,243.67,354.77Z" style="fill:#dfe7fd"/><path d="M88.16,395.33c11,17.29,59.92,15.27,72.45,0s5.75-63.74-11.35-89.51c-12.91-19.55-41.13-21.52-55.21,2C79.54,331.83,77.94,379.17,88.16,395.33Z" style="fill:#04c5af"/><path d="M148.46,366.12a1.79,1.79,0,0,0-1.79,1.79c.8,11.36-16.63,10.13-18.84,10.46l-1.7-49.79a1.79,1.79,0,1,0-3.58,0h0v25.15C116.33,353,109,351.1,109,341.06a1.79,1.79,0,0,0-3.58,0h0c0,6.64,2,18.09,17.1,18.56V482.77h7.3l-2-97.85a37.81,37.81,0,0,0,9.14-2.35c8.67-3.16,13.24-8.2,13.24-14.66A1.79,1.79,0,0,0,148.46,366.12Z" style="fill:#01aa94"/><path d="M307.27,483.57H154a3.49,3.49,0,1,1,0-7H307.27a3.49,3.49,0,0,1,0,7Z" style="fill:#dfe7fd"/><path d="M282.3,387.18h28.26a5.51,5.51,0,0,0,5.47-5.51V371l-33-.42Z" style="fill:#dfe7fd"/><path d="M122.55,407.72V483.1h7.3l-1.55-75.38a56.15,56.15,0,0,0,29.58-9.42l-1,78.58H154a3.49,3.49,0,1,0,0,7H307.27a3.49,3.49,0,0,0,0-7h-1.42c1.75-9.42,3.68-27.37-6.45-29.82-13.71-3.39-13.71,19.17-13.71,19.17a53.51,53.51,0,0,0-6.59-1.69l3.43-77.07h28A5.52,5.52,0,0,0,316,382V371h-.42L319,348.18a28.57,28.57,0,0,1,5.7,0c6.5.61,5.23-8.77,0-11.64.85-5.09-4.19-8.86-11.73-3.25-1.13-5.89-10.88,1.65-9.75,7.82l.38.75-18.85,1.65,1.51-33.4h-.42l.28-6.22h8.81a3.53,3.53,0,0,0,.81-7,3.66,3.66,0,0,0-.81,0h-.8l-8-34.62a7.87,7.87,0,0,0-7.73-6.17H207.11V239.31h1.18a3.53,3.53,0,0,0-.38-7l-18.51,1.13a3.53,3.53,0,0,0,0,7h.75l1.23,15.73H167.82a8,8,0,0,0-7.77,6.17L152,297h-.66a3.53,3.53,0,0,0,0,7h7.68l-.28,21.2a97.57,97.57,0,0,0-9.42-19.32c-12.91-19.55-41.13-21.53-55.22,2C79.63,332.06,78,379.41,88.25,395.57,93.44,403.72,107.8,407.72,122.55,407.72Zm186-36.6H298.17l2.93-21.81,6-.52a11.37,11.37,0,0,0,4.71.42l-3.2,21.63a.41.41,0,0,0,0,.09Zm-24.26-20.54,9.42-.8L291.3,370a1.51,1.51,0,0,0,0,.52h-7.92l.9-20.21Z" style="fill:#fff;stroke:#fff;stroke-miterlimit:10;stroke-width:3.768769520748865px;opacity:0.75;isolation:isolate"/><path d="M287.43,340.45c1.13-6.12-8.57-13.66-9.7-7.82-7.49-5.56-12.48-1.84-11.64,3.3-5.27,2.87-6.59,12.25,0,11.59s19.55,3.48,18.85-1.79" style="fill:#04c5af"/><path d="M296,373.61a3.42,3.42,0,0,1-3.44-3l-3.3-24.92a3.44,3.44,0,0,1,2.91-3.9h.11a3.54,3.54,0,0,1,3.91,3l3.29,24.88a3.48,3.48,0,0,1-3,3.91h0Z" style="fill:#614afc"/><path d="M278.58,374a3.55,3.55,0,0,1-3.49-3l-4-26.8a3.51,3.51,0,0,1,.9-2.92,3.77,3.77,0,0,1,2.83-1.09L306.65,343a3.48,3.48,0,0,1,3.21,3.74v0a3.45,3.45,0,0,1-3.7,3.16h-.07l-27.42-2.31,3.2,22.47a3.48,3.48,0,0,1-2.94,4h0Z" style="fill:#614afc"/><path d="M308.07,386.66H279.8a5.45,5.45,0,0,1-5.46-5.46V370.51l35.8-.48Z" style="fill:#dfe7fd"/><path d="M293.89,182.3a3.48,3.48,0,0,1-3.44-3.06l-3.3-24.87a3.5,3.5,0,0,1,6.93-1l3.29,24.87a3.48,3.48,0,0,1-3,3.91h0Z" style="fill:#614afc"/><path d="M276.69,182.73a3.5,3.5,0,0,1-3.44-3l-4-26.8a3.46,3.46,0,0,1,3.63-4l31.8,1.65a3.49,3.49,0,0,1-.38,7l-27.51-1.41,3.34,22.57a3.54,3.54,0,0,1-2.92,4Z" style="fill:#614afc"/><path d="M306.18,195.35H277.92a5.46,5.46,0,0,1-5.47-5.46v-10.7l33-.37Z" style="fill:#dfe7fd"/><polygon points="496.98 481.92 304.49 481.92 306.75 125.86 504.47 125.86 496.98 481.92" style="fill:#dfe7fd"/><polygon points="463.25 90.11 463.25 153.75 480.16 154.93 477.19 101.7 463.25 90.11" style="fill:#4b39f3"/><path d="M480.63,158h0l-18.37-.94a3.49,3.49,0,1,1,.37-7h0l18.38.94a3.53,3.53,0,0,1,0,7Z" style="fill:#614afc"/><polygon points="398.47 90.11 398.47 64.06 415.34 65.28 412.42 101.7 398.47 90.11" style="fill:#4b39f3"/><path d="M415.85,68.53h0l-18.37-1a3.49,3.49,0,1,1,.38-7l18.37,1a3.49,3.49,0,0,1,0,7Z" style="fill:#614afc"/><polygon points="448.88 84.69 448.88 47.76 465.74 48.98 462.82 96.28 448.88 84.69" style="fill:#4b39f3"/><path d="M466.26,52.23h0l-18.37-1a3.49,3.49,0,1,1,.38-7h0l18.37,1a3.49,3.49,0,0,1,0,7Z" style="fill:#614afc"/><path d="M309.48,481.68s6.64-17.1,0-18.23a37.81,37.81,0,0,0-15.5,2s0-22.57-13.66-19.22-5.18,35.42-5.18,35.42Z" style="fill:#04c5af"/><polygon points="311.04 481.92 494.9 481.92 492.69 125.86 303.4 125.86 311.04 481.92" style="fill:#dfe7fd"/><polygon points="497.5 481.92 322.48 481.92 324.56 135.57 504.47 135.57 497.5 481.92" style="fill:#fff"/><path d="M294.74,125.87H518.6l-8.76-38.16a7.86,7.86,0,0,0-7.68-6.17H311.22a7.9,7.9,0,0,0-7.72,6.17Z" style="fill:#4b39f3"/><path d="M294.74,125.87H503.29l-8.76-38.16a7.86,7.86,0,0,0-7.68-6.17H311.22a7.9,7.9,0,0,0-7.72,6.17Z" style="fill:#614afc"/><path d="M518.6,129.35H294.74a3.49,3.49,0,0,1,0-7H518.6a3.49,3.49,0,1,1,0,7Z" style="fill:#dfe7fd"/><path d="M423.2,475.51h33.88l2.26-54.36a5.38,5.38,0,0,0-4.71-5.61l-26.81-2a5.33,5.33,0,0,0-5.69,4.93,5.81,5.81,0,0,0,0,.59Z" style="fill:#614afc"/><path d="M430.32,350.77h24.07V320.52a6.94,6.94,0,0,0-6.83-7H435.12a6.89,6.89,0,0,0-6.85,6.91c0,.16,0,.33,0,.49Z" style="fill:#948efd"/><rect x="422.69" y="94.73" width="36.75" height="13.9" rx="2.5" style="fill:#4b39f3"/><rect x="347.83" y="94.73" width="36.75" height="13.9" rx="2.5" style="fill:#4b39f3"/><path d="M430.32,400.75h24.07V366a2.5,2.5,0,0,0-2.5-2.45H432.63a2.49,2.49,0,0,0-2.45,2.45Z" style="fill:#948efd"/><path d="M455.76,404.24H426.93a3.49,3.49,0,0,1,0-7h28.83a3.49,3.49,0,0,1,0,7Z" style="fill:#dfe7fd"/><path d="M455.76,354.25H426.93a3.49,3.49,0,1,1,0-7h28.83a3.49,3.49,0,0,1,0,7Z" style="fill:#dfe7fd"/><path d="M430.32,185.79h24.07V155.54a6.93,6.93,0,0,0-6.88-6.92H435.12a6.88,6.88,0,0,0-6.85,6.9c0,.17,0,.33,0,.5Z" style="fill:#948efd"/><path d="M455.76,189.27H426.93a3.49,3.49,0,0,1,0-7h28.84a3.49,3.49,0,1,1,0,7Z" style="fill:#dfe7fd"/><path d="M358.05,350.77h24.07V320.52a6.87,6.87,0,0,0-6.73-7H362.9a6.87,6.87,0,0,0-6.89,6.86,4.87,4.87,0,0,0,0,.54Z" style="fill:#948efd"/><path d="M358.05,400.75h24.07V366a2.45,2.45,0,0,0-2.45-2.45H360.55a2.5,2.5,0,0,0-2.5,2.45Z" style="fill:#948efd"/><path d="M383.49,404.24H354.66a3.49,3.49,0,0,1,0-7h28.83a3.49,3.49,0,0,1,0,7Z" style="fill:#dfe7fd"/><path d="M358.05,453.7h24.07V419a2.45,2.45,0,0,0-2.45-2.45H360.55a2.45,2.45,0,0,0-2.5,2.4V453.7Z" style="fill:#948efd"/><path d="M383.49,457.23H354.66a3.53,3.53,0,0,1,0-7h28.83a3.53,3.53,0,0,1,0,7Z" style="fill:#dfe7fd"/><path d="M383.49,354.25H354.66a3.49,3.49,0,1,1,0-7h28.83a3.49,3.49,0,1,1,0,7Z" style="fill:#dfe7fd"/><path d="M430.32,296.21h24.07V266a6.88,6.88,0,0,0-6.88-6.88H435.12a6.87,6.87,0,0,0-6.84,6.91c0,.13,0,.26,0,.39Z" style="fill:#948efd"/><path d="M455.76,299.7H426.93a3.49,3.49,0,1,1,0-7h28.83a3.49,3.49,0,0,1,0,7Z" style="fill:#dfe7fd"/><path d="M358.05,296.21h24.07V266a6.88,6.88,0,0,0-6.87-6.88H362.9A6.88,6.88,0,0,0,356,266c0,.14,0,.29,0,.43Z" style="fill:#948efd"/><path d="M383.49,299.7H354.66a3.49,3.49,0,1,1,0-7h28.83a3.49,3.49,0,1,1,0,7Z" style="fill:#dfe7fd"/><path d="M430.32,239.4h24.07V209.16a6.93,6.93,0,0,0-6.88-6.93H435.12a6.88,6.88,0,0,0-6.87,6.88,6.28,6.28,0,0,0,0,.75Z" style="fill:#948efd"/><path d="M455.76,242.84H426.93a3.49,3.49,0,1,1,0-7h28.83a3.49,3.49,0,0,1,0,7Z" style="fill:#dfe7fd"/><path d="M358.05,239.4h24.07V209.16a6.88,6.88,0,0,0-6.83-6.93H362.9a6.89,6.89,0,0,0-6.92,6.84,7,7,0,0,0,0,.79Z" style="fill:#948efd"/><path d="M383.49,242.84H354.66a3.49,3.49,0,1,1,0-7h28.83a3.49,3.49,0,1,1,0,7Z" style="fill:#dfe7fd"/><path d="M358.05,185.79h24.07V155.54a6.88,6.88,0,0,0-6.83-6.92H362.9a6.87,6.87,0,0,0-6.89,6.86,4.87,4.87,0,0,0,0,.54Z" style="fill:#948efd"/><path d="M383.49,189.27H354.66a3.49,3.49,0,0,1,0-7h28.83a3.49,3.49,0,1,1,0,7Z" style="fill:#dfe7fd"/><path d="M516,483.1H282.25a3.53,3.53,0,0,1,0-7H516a3.53,3.53,0,0,1,.82,7A3.75,3.75,0,0,1,516,483.1Z" style="fill:#dfe7fd"/><path d="M266,347.52a29.63,29.63,0,0,1,5.65,0l3.39,22.8h-.47V381a5.48,5.48,0,0,0,5.42,5.52H305.1l-.47,76.6A43.6,43.6,0,0,0,294,465.29s0-22.57-13.66-19.22-5.18,35.43-5.18,35.43h4.38a3.47,3.47,0,0,0,2.73,1.41H516a3.53,3.53,0,1,0,.82-7,3.75,3.75,0,0,0-.82,0H497.64l6.83-340.46h0v-6.27H518.6a3.49,3.49,0,1,0,0-7h-.81l-8-34.67a7.86,7.86,0,0,0-7.68-6.17H463.72L465.56,52h.7a3.49,3.49,0,1,0,0-7l-18.37-1a3.49,3.49,0,1,0-.38,7h1.18v30.2H413.83l1.08-13h.76a3.49,3.49,0,0,0,0-7l-18.38-1a3.49,3.49,0,0,0-.37,7h1.17V81.06H311.22a7.91,7.91,0,0,0-7.72,6.18l-8,35.14h-.8a3.49,3.49,0,1,0,0,7h8.72l.47,21.15-31-1.6a3.46,3.46,0,0,0-3.63,4l3.91,26.28h-.47v10.65a5.46,5.46,0,0,0,5.42,5.51h26.75L306,246.47l-.57,96.34-18.33-1.56.38-.8c1.13-6.12-8.57-13.66-9.7-7.82-7.49-5.56-12.49-1.84-11.64,3.3C260.82,338.8,259.5,348.18,266,347.52Zm12.81.89a11.21,11.21,0,0,0,4.71-.47l5.94.52,2.87,21.86H282l-.15-.29Zm-2-192.3,10.64.57,3,22.33H280.13a1,1,0,0,0,0-.43Zm20.54,22.8v-.56l-2.83-21.3,9.42.47.47,21.3ZM305.43,370h-6.22v-.56l-2.73-20.59,8.81.76Z" style="fill:#fff;stroke:#fff;stroke-miterlimit:10;stroke-width:1.1777404576843178px;opacity:0.699999988079071;isolation:isolate"/></g><path d="M214,507.14c-33.11,10.05-45.45,38.5,200.61,35.74S633,501.71,585,499.7,272.69,489.32,214,507.14Z" style="opacity:0.30000000000000004;mix-blend-mode:multiply;fill:url(#Dégradé_sans_nom_30)"/><rect x="485.37" y="415.7" width="47.53" height="114.55" rx="23.77" transform="translate(-122.86 184.01) rotate(-18.32)" style="fill:#f2545b;stroke:#f2545b;stroke-miterlimit:10;stroke-width:0.19494123288105436px"/><rect x="377.94" y="415.7" width="47.53" height="114.55" rx="23.77" transform="translate(634.38 1048.24) rotate(-161.68)" style="fill:#f2545b;stroke:#f2545b;stroke-miterlimit:10;stroke-width:0.19494123288105436px"/><path d="M307.36,511c-.45-6.68-24-6.11-27.31-17.07s-9-76.34-9.45-86.38-4.39-41.64,2.66-67.2c7.71-28-47.42-13.93-47.42-13.93-1.09,8.67,15.08,55.13,17.56,78-5.69,19.3,24.07,76.81,19,88.54-3,6.82-5.4,7.34-5.92,14.66-.5,7.11,15.76,4.47,23.28,6.44C290.1,516.74,307.64,515.2,307.36,511Z" style="fill:url(#Dégradé_sans_nom_28)"/><path d="M264.1,353.73c3.48-12,9.37-28.34,21.75-40.31s20-24,18.73-29.47c-1.62-7.21-6.69-21.2-6.69-21.2s-.92-5.47,3.8-16.66c0,0-15.13-2.13-14.59-5.88-2.83-.58-2.6,2.27-6.41,1.49-18.36-3.71-22.26-1-24.33,7.91-.76,3.28,9.23,34.64,1.77,50.13s-24.78,6.27-34.6,24.13" style="fill:#483dcc"/><path d="M274.77,240.71l13.46,4.85s1.56-10.29,3.67-12.57c5.43,4.48,10.46,5.27,11.76,4.68s17.6-24.33,16.21-40.46-33.19-26.52-37.63.27S274.77,240.71,274.77,240.71Z" style="fill:#9494ff"/><path d="M318.48,209.37c2.61-3.39,8-8.16,6.27-15.3s-14.12-21.49-27.37-20.31-25,8.51-27.72,28.59c-2.05,14.94,8.33,20.24,8.33,20.24s3.66-23,5.44-20.79c1.52,1.87,1.37,4.94,2.17-.22,0,0,3.32,5.21,5.31,4.62a6.88,6.88,0,0,0,3.32-2.81s20,7,23.83-1.42C319.86,207.68,318.48,209.37,318.48,209.37Z" style="fill:#5a52ff"/><ellipse cx="281.28" cy="206.95" rx="8.09" ry="5.39" transform="translate(47.75 466.59) rotate(-84.37)" style="fill:#9494ff"/><path d="M294.76,181.84c-2.92,6.08-9.62,8.93-15,6.36s-9.27-9.77-6.35-15.85c4.13-8.61,11.57-8.72,16.91-6.16S297.67,175.76,294.76,181.84Z" style="fill:#5a52ff"/><path d="M279.84,185.17s.28-2.74-3.68.35c-2.54,2-8.64,11.42-9.81,20.54" style="fill:none;stroke:#5a52ff;stroke-linecap:round;stroke-miterlimit:10;stroke-width:0.6306187357596114px"/><path d="M279.84,185.17s.28-2.74-3.68.35-16.22,25.26,1.44,36.42" style="fill:none;stroke:#5a52ff;stroke-linecap:round;stroke-miterlimit:10;stroke-width:0.6306187357596114px"/><path d="M291.13,167.3a12.57,12.57,0,0,0-16.62,2.09c-6.28,7.58.15,13.41.15,13.41" style="fill:none;stroke:#5a52ff;stroke-linecap:round;stroke-miterlimit:10;stroke-width:0.6306187357596114px"/><path d="M318.45,196.87a12.63,12.63,0,0,1-.39,5.1c-.79,3-2.9,6.73-12,5-8.37-1.56-11.79-3.61-11.79-3.61" style="fill:none;stroke:#5a52ff;stroke-linecap:round;stroke-miterlimit:10;stroke-width:0.6306187357596114px"/><path d="M289.62,238.72c-5.31.36-12.95-1.81-14.18-3.05-.8,1.94-1.7,4.62-4.81,4.52s5.56,9.33,5.56,9.33,18.42-5,16.07-5.53S288.89,241.93,289.62,238.72Z" style="fill:#483dcc"/><path d="M245.79,390.28s-3,5.65-10.33,18.5,10.57,77.83,7.44,91.71c-1.64,7.25-7.45,11.34-4.43,18,3.32,7.35,13,.22,19.67,4.21s25.41,3,27.07-.85-18.31-9.87-23.6-20-4.3-70.31-2.57-75.54-1.7-16.39-.92-21.89S245.79,390.28,245.79,390.28Z" style="fill:#0fc4b2"/><path d="M296.19,245.05l2.35,10.66a64.71,64.71,0,0,1,3.15-9.62Z" style="fill:#9494ff"/><path d="M264.12,358.59c2.45-6.87,6.18-7.64,9.14-18.26,2.67-9.59,1.92-13.37,3.12-15.24v0c-5.74,7.72-32.34-12-28-16.34h0c-8.13,3.32-18.2,3-24.84,15.1C213.7,341.73,238.41,435.94,248,436.25S262.64,362.73,264.12,358.59Z" style="fill:#0fc4b2"/><path d="M444.48,248.84,476,200.11a9.3,9.3,0,0,1,16.24,1.13l30.41,65.48Z" style="fill:#f2545b;stroke:#f2545b;stroke-miterlimit:10;stroke-width:0.19494123288105436px"/><path d="M592.72,373c0,76.46-77.05,145.52-153.51,145.52A138.45,138.45,0,0,1,300.76,380.06c0-76.46,77.05-145.52,153.51-145.52A138.45,138.45,0,0,1,592.72,373Z" style="fill:#ff6c95"/><path d="M481,237.13l43.16-38.82a9.3,9.3,0,0,1,15.39,5.33l12.28,71.14Z" style="fill:#ff6c95"/><path d="M592.72,412.52,504.25,417c-7.52,0,1.39-13.23,1.39-20.75V348.78a13.72,13.72,0,0,1,13.68-13.68H595.6a13.73,13.73,0,0,1,13.68,13.68v47.45C609.28,403.75,600.24,412.52,592.72,412.52Z" style="fill:#ff6c95"/><rect x="483.88" y="428.82" width="47.53" height="114.55" rx="23.77" transform="translate(-127.06 184.2) rotate(-18.32)" style="fill:#ff6c95"/><rect x="353.75" y="428.82" width="47.53" height="114.55" rx="23.77" transform="translate(583.12 1066.21) rotate(-161.68)" style="fill:#ff6c95"/><path d="M240.16,383.75c60.77,3.61,28,54,12.06,24.84C233,373.53,288.83,363.4,290.33,393.5c1.34,27,17.11,16.72,16-5.56" style="fill:none;stroke:#ff6c95;stroke-linecap:round;stroke-miterlimit:10;stroke-width:12.295805979336889px"/><rect x="529.64" y="304.19" width="24.61" height="24.61" rx="12.31" style="fill:#f2545b;stroke:#f2545b;stroke-miterlimit:10;stroke-width:0.19494123288105436px"/><path d="M519.23,324.55s27.15-14.2,43.64-16.08-15.24-10.23-15.24-10.23H530.89Z" style="fill:#ff6c95"/><circle cx="341.72" cy="263.94" r="43.84" style="fill:#ffb81d"/><circle cx="341.72" cy="263.94" r="32.54" style="fill:#ffee1d"/><path d="M366.14,267.71c1.43-1.79,4.07-13.64-8.19-7.26a94.38,94.38,0,0,1-9.49,4.66c1-2.17,6.54-8.4,5.19-9.06-2.86-1.41-10.43,3.51-12.65,7.66a29.94,29.94,0,0,0-2.88,7.93c-10.91,5.66-26.63,9.45-31.16,13.05-6.21-4.5-11.67-9.17-21.92-20.44-8.1-8.9-16.53-31.89-28.16-21.9-14.7,12.64,3.38,27.47,15.18,38.84,7.32,7.05,26.18,21.8,39,26.32,6.56-3.79,13.27-15.37,31.33-24.35C354.71,277,359.3,276.26,366.14,267.71Z" style="fill:#9494ff"/><path d="M374.59,234.92c-1.6,1.36-3.18,10-1,13.16,1.39,2,5.38.24,8.34-1.53C389.65,242,379.43,230.78,374.59,234.92Z" style="fill:#9494ff"/><path d="M346.74,315.78a112.94,112.94,0,0,1,48.64-39.47" style="fill:none;stroke:#f2545b;stroke-linecap:round;stroke-miterlimit:10;stroke-width:12.340260354562668px"/></g></g></svg>